<svg width="48" height="38" viewBox="0 0 48 38" fill="none" xmlns="http://www.w3.org/2000/svg">
<g clip-path="url(#clip0_1_415)">
<path d="M29.142 8.62415H41.1398V12.0695H29.142V8.62415Z" fill="white"/>
<path d="M29.142 17.2375H41.1398V20.6828H29.142V17.2375Z" fill="white"/>
<path d="M29.142 25.8506H41.1398V29.296H29.142V25.8506Z" fill="white"/>
<path d="M44.5679 0.0111084H3.43235C2.52348 0.0120205 1.65209 0.375302 1.00942 1.02123C0.366752 1.66715 0.00530204 2.54295 0.00439453 3.45643V34.4643C0.00530204 35.3778 0.366752 36.2536 1.00942 36.8995C1.65209 37.5454 2.52348 37.9087 3.43235 37.9096H44.5679C45.4766 37.9082 46.3477 37.5448 46.9903 36.899C47.6329 36.2532 47.9945 35.3776 47.9958 34.4643V3.45643C47.9949 2.54295 47.6335 1.66715 46.9908 1.02123C46.3481 0.375302 45.4767 0.0120205 44.5679 0.0111084ZM3.43235 3.45643H22.2861V34.4643H3.43235V3.45643ZM25.7141 34.4643V3.45643H44.5679L44.5713 34.4643H25.7141Z" fill="white"/>
</g>
<defs>
<clipPath id="clip0_1_415">
<rect width="48" height="37.92" fill="white"/>
</clipPath>
</defs>
</svg>
